<svg id="Layer_1" data-name="Layer 1" xmlns="http://www.w3.org/2000/svg" viewBox="0 0 1550 430"><defs><style>.cls-1{fill:#00395c;}.cls-2{fill:#d60059;}</style></defs><polygon class="cls-1" points="382.3 27.35 297.73 27.35 380.15 385.19 464.72 385.19 382.3 27.35"/><polygon class="cls-2" points="446.04 124.29 545.63 27.35 423.14 27.35 446.04 124.29"/><path class="cls-1" d="M621.22,114.35a111,111,0,0,1,58.47-16.12A106.53,106.53,0,0,1,735,114.08a142,142,0,0,1,43.91,40.66l72.85-28.25a198.06,198.06,0,0,0-72.39-72.12,193.36,193.36,0,0,0-99.64-27A196.12,196.12,0,0,0,581.8,52.63,192.59,192.59,0,0,0,510.64,121a181,181,0,0,0,0,187.73,192.74,192.74,0,0,0,71.16,68.41c5.08,2.88,10.21,5.49,15.47,7.87a197.74,197.74,0,0,0,82.42,17.45,193,193,0,0,0,81.18-17.45,203.55,203.55,0,0,0,18.73-9.84,199.76,199.76,0,0,0,72.12-72.85l-72.85-28.3A141.55,141.55,0,0,1,735,315.27a104.79,104.79,0,0,1-55.27,16.12,111,111,0,0,1-58.47-16.12,118.84,118.84,0,0,1-42.4-42.58,113.76,113.76,0,0,1-15.61-57.79,112.51,112.51,0,0,1,15.61-57.51,120.09,120.09,0,0,1,42.4-42.86"/><path class="cls-1" d="M1126.77,248.92q0,31.74-13.37,50.83a74.47,74.47,0,0,1-32.47,27,96.54,96.54,0,0,1-37.27,7.92,97.68,97.68,0,0,1-37.91-7.92,75.93,75.93,0,0,1-32.74-27q-13.74-19.1-13.74-50.83V33.72H881v215.2a158.45,158.45,0,0,0,20,80.82,135.74,135.74,0,0,0,56.78,53.52l4,1.93a204.61,204.61,0,0,0,163,0c1.33-.64,2.71-1.24,4-1.93a134.17,134.17,0,0,0,56.55-53.52,160.36,160.36,0,0,0,19.82-80.82V33.72h-78.43Z"/><path class="cls-1" d="M1518.44,226.62a111.26,111.26,0,0,0-46.84-32.46,469.11,469.11,0,0,0-68.18-17.63l-17.86-3.48c-18.31-4-31.32-7-39.38-9.16a68.64,68.64,0,0,1-22.34-10.25,22.21,22.21,0,0,1-10-19.23q0-19.27,19.78-27.48a110.22,110.22,0,0,1,42.58-8.24,146.55,146.55,0,0,1,52.11,9.94,221.83,221.83,0,0,1,50.37,27.47l43.63-59.52A263.69,263.69,0,0,0,1456.58,40,224.35,224.35,0,0,0,1379,27.81q-58,0-100.74,25.51t-42.85,84q0,39.69,24.26,63a137.1,137.1,0,0,0,54.17,32.78,479.07,479.07,0,0,0,65.39,15.38q26.77,4.95,43.17,9.16a71.78,71.78,0,0,1,27,12.64,26.5,26.5,0,0,1,10.62,21.8c0,10.89-6,20.32-18.31,28.25s-28.21,11.9-48.68,11.9a175.34,175.34,0,0,1-64.46-14.1,209.73,209.73,0,0,1-56.51-32.05L1230.43,346a229.17,229.17,0,0,0,65.07,39.24,268.12,268.12,0,0,0,98.39,17.44q51.75,0,86.73-17.44a128.1,128.1,0,0,0,18.63-11.31q38.93-28.75,38.92-83.79,0-40.66-19.82-63.47"/><path class="cls-1" d="M11.83,27.35H157.89c85.26,0,136.82,50.37,136.82,123.63V152c0,82.69-64.34,125.59-144.51,125.59H90.67V384.78H11.83ZM152.76,207.58c39.24,0,62.14-23.49,62.14-53.94v-1c0-35.62-24.36-54.3-63.65-54.3H90.49V207.58Z"/></svg>