<?xml version="1.0" encoding="UTF-8"?> <svg xmlns="http://www.w3.org/2000/svg" width="167" height="42" viewBox="0 0 167 42" fill="none"> <path d="M101.58 25.63C98.28 25.63 97.03 23.55 96.92 21.11H108V20.09C108 15.74 105.3 13.21 101.2 13.21C97.1 13.21 94.23 15.83 94.23 20.37C94.23 24.44 96.42 27.93 101.57 27.93C106.18 27.93 108.02 24.86 108.48 22.67H105.72C105.25 24.61 103.77 25.63 101.58 25.63ZM101.21 15.48C104 15.48 105.33 17.16 105.33 19.18H96.91C96.91 17.16 98.48 15.48 101.21 15.48Z" fill="#0069F7"></path> <path d="M163.45 22.67C162.97 24.6 161.49 25.63 159.3 25.63C156 25.63 154.75 23.55 154.64 21.11H165.73V20.09C165.73 15.74 163.03 13.21 158.93 13.21C154.83 13.21 151.96 15.83 151.96 20.37C151.96 24.44 154.15 27.93 159.3 27.93C163.91 27.93 165.75 24.86 166.21 22.67H163.45ZM158.93 15.48C161.72 15.48 163.05 17.16 163.05 19.18H154.63C154.63 17.16 156.2 15.48 158.93 15.48Z" fill="#0069F7"></path> <path d="M55.27 13.2C52 13.2 50.21 14.96 49.58 17.1H49.3V15.31V13.49H46.54V32.8499H49.3V25.83V24.01H49.58C50.21 26.17 52 27.93 55.27 27.93C59.39 27.93 61.92 24.75 61.92 20.57C61.92 16.39 59.39 13.2 55.27 13.2ZM54.33 25.54C51.49 25.54 49.3 24.06 49.3 20.56C49.3 17.06 51.49 15.58 54.33 15.58C57.14 15.58 59.16 17.09 59.16 20.56C59.16 24.04 57.14 25.54 54.33 25.54Z" fill="#0069F7"></path> <path d="M85.3899 13.2C82.1199 13.2 80.3299 14.96 79.6999 17.1H79.4199V13.49H76.6599V32.8499H79.4199V24.01H79.6999C80.3299 26.17 82.1199 27.93 85.3899 27.93C89.5099 27.93 92.0399 24.75 92.0399 20.57C92.0499 16.39 89.5099 13.2 85.3899 13.2ZM84.4499 25.54C81.6099 25.54 79.4299 24.07 79.4199 20.58V20.54C79.4299 17.06 81.6099 15.58 84.4499 15.58C87.2599 15.58 89.2799 17.09 89.2799 20.56C89.2899 24.04 87.2699 25.54 84.4499 25.54Z" fill="#0069F7"></path> <path d="M116.37 9.23996C116.37 7.98996 115.82 7.24996 114.66 7.21996V7.20996H110.58V9.59996H110.6H113.61V9.60996V25.26H109.66V27.65H120.35V25.26H116.37V9.23996Z" fill="#0069F7"></path> <path d="M68.3899 11.13C69.4699 11.13 70.2599 10.41 70.2599 9.39995C70.2599 8.41995 69.4699 7.69995 68.3899 7.69995C67.3299 7.69995 66.5699 8.41995 66.5699 9.39995C66.5599 10.41 67.3299 11.13 68.3899 11.13Z" fill="#0069F7"></path> <path d="M70.09 15.02C70.09 13.93 69.62 13.2 68.63 13.2H64.4V13.48V15.58H67.44V15.61V25.25H63.46V27.64H74.07V25.25H70.09V15.02Z" fill="#0069F7"></path> <path d="M127.27 11.13C128.35 11.13 129.14 10.41 129.14 9.39995C129.14 8.41995 128.35 7.69995 127.27 7.69995C126.21 7.69995 125.45 8.41995 125.45 9.39995C125.45 10.41 126.22 11.13 127.27 11.13Z" fill="#0069F7"></path> <path d="M128.97 15.02C128.97 13.93 128.5 13.2 127.51 13.2H123.28V13.48V15.58H126.32V15.61V25.25H122.34V27.64H132.95V25.25H128.97V15.02Z" fill="#0069F7"></path> <path d="M143.91 13.2C140.84 13.2 139.05 15.02 138.48 17.58H138.2V15.79V13.49H135.44V27.65H138.2V21.57C138.2 17.73 140.19 15.6 143.09 15.6C145.48 15.6 146.53 16.71 146.53 19.58V27.65H149.32V19.18C149.31 15.17 147.21 13.2 143.91 13.2Z" fill="#0069F7"></path> <path d="M41.47 16.26V13.79L31.55 17.72C30.33 18.21 29.54 19.37 29.54 20.69C29.54 22.01 30.33 23.17 31.55 23.66L41.47 27.69V25.24L30.54 20.82V20.56L41.47 16.26Z" fill="#0069F7"></path> <path d="M11.94 20.79C11.94 19.47 11.15 18.31 9.93 17.82L0 13.79V16.24L10.93 20.66V20.92L0 25.21V27.68L9.92 23.75C11.15 23.27 11.94 22.11 11.94 20.79Z" fill="#A6A8AB"></path> <path d="M26.9999 26.92C26.0699 27.85 25.7999 29.23 26.3199 30.44L30.4799 40.31L32.2099 38.58L27.6099 27.73L27.7999 27.54L38.5599 32.23L40.3099 30.48L30.5199 26.24C29.3099 25.73 27.9299 25.99 26.9999 26.92Z" fill="#A6A8AB"></path> <path d="M12.2199 15.4899C13.0499 15.4899 13.8599 15.1699 14.4799 14.5499C15.4099 13.6199 15.6799 12.2399 15.1599 11.0299L10.9999 1.15991L9.25991 2.88991L13.8599 13.7399L13.6699 13.9299L2.90991 9.23991L1.15991 10.9899L10.9499 15.2299C11.3599 15.3999 11.7899 15.4899 12.2199 15.4899Z" fill="#A6A8AB"></path> <path d="M20.79 29.54C19.47 29.54 18.31 30.33 17.82 31.55L13.79 41.47H16.24L20.66 30.54H20.92L25.22 41.47H27.69L23.76 31.55C23.27 30.33 22.11 29.54 20.79 29.54Z" fill="#A6A8AB"></path> <path d="M20.68 11.94C22 11.94 23.16 11.15 23.65 9.93L27.69 0H25.24L20.82 10.93H20.56L16.26 0H13.79L17.72 9.92C18.2 11.15 19.37 11.94 20.68 11.94Z" fill="#A6A8AB"></path> <path d="M14.5499 26.9999C13.6199 26.0699 12.2399 25.7999 11.0299 26.3199L1.15991 30.4799L2.88991 32.2099L13.7399 27.6099L13.9299 27.7999L9.23991 38.5699L10.9899 40.3199L15.2299 30.5299C15.7499 29.3099 15.4799 27.9299 14.5499 26.9999Z" fill="#A6A8AB"></path> <path d="M26.9201 14.4799C27.5301 15.0999 28.3501 15.4199 29.1801 15.4199C29.6101 15.4199 30.0401 15.3299 30.4501 15.1599L40.3201 10.9999L38.5901 9.26992L27.7401 13.8699L27.5501 13.6799L32.2401 2.91992L30.4901 1.16992L26.2501 10.9599C25.7301 12.1599 25.9901 13.5499 26.9201 14.4799Z" fill="#A6A8AB"></path> </svg> 